# xmcd
#
# Track frame offsets: 
#        150
#        19577
#        39413
#        56144
#        73566
#
# Disc length: 1181 seconds
#
# Revision: 1
# Processed by: cddbd v1.5.2PL0 Copyright (c) Steve Scherf et al.
# Submitted via: ExactAudioCopyFreeDBPlugin 1.0
#
DISCID=3b049b05
DTITLE=Doug Paisley - Golden Embers
DYEAR=2012
DGENRE=Alt. Country
TTITLE0=City Lights
TTITLE1=Sad Sinner
TTITLE2=Bats
TTITLE3=Two Like Us
TTITLE4=Learn to Lose
EXTD=
EXTT0=
EXTT1=
EXTT2=
EXTT3=
EXTT4=
PLAYORDER=
